<svg version="1.1" className="mauer-narrator-svg-arrow"
     xmlns:cc="http://creativecommons.org/ns#"
     xmlns:inkscape="http://www.inkscape.org/namespaces/inkscape"
     xmlns:sodipodi="http://sodipodi.sourceforge.net/DTD/sodipodi-0.dtd"
     xmlns:rdf="http://www.w3.org/1999/02/22-rdf-syntax-ns#"
     xmlns:svg="http://www.w3.org/2000/svg"
     xmlns:dc="http://purl.org/dc/elements/1.1/"
     xmlns="http://www.w3.org/2000/svg"
     xmlns:xlink="http://www.w3.org/1999/xlink" x="0px" y="0px"
     viewBox="-255 334 62 36" style="enable-background:new -255 334 62 36;"
     xml:space="preserve">
                                                <g transform="translate(0,-952.36218)">
                                                    <path d="M-193.2,1303.7l-16-17c-0.4-0.4-1-0.4-1.4,0c-0.4,0.4-0.4,1,0,1.4l14.4,15.3H-254c-0.6,0-1,0.4-1,1c0,0.6,0.4,1,1,1h57.7 l-14.4,15.3c-0.4,0.4-0.3,1.1,0,1.4c0.4,0.4,1,0.4,1.4,0l16-17C-192.9,1304.6-193,1304-193.2,1303.7L-193.2,1303.7z" />
                                                </g>
                                            </svg>