<svg width="16" height="16" viewBox="0 0 16 16" fill="none" xmlns="http://www.w3.org/2000/svg">
    <path fill-rule="evenodd" clip-rule="evenodd" d="M14.3003 0.299561L11.5991 2.99976C11.3218 2.84839 11.0386 2.70972 10.7495 2.58667C10.3999 2.43921 10.0405 2.31421 9.67139 2.21851C9.13428 2.07886 8.57764 1.99976 7.99951 1.99976C4.3999 1.99976 1.59912 5.09937 0.399902 6.90015C-0.100098 7.59937 -0.100098 8.49976 0.399902 9.09937C0.899902 9.90015 1.80029 10.9001 2.80029 11.7996L0.300293 14.2996C-0.100098 14.7 -0.100098 15.2996 0.300293 15.7C0.499512 15.9001 0.69873 15.9998 0.999512 15.9998C1.30029 15.9998 1.49951 15.9001 1.69873 15.7L15.6987 1.69995C15.8765 1.52124 15.9761 1.30347 15.9956 1.08081C16.019 0.804443 15.9214 0.52124 15.6987 0.299561C15.3003 -0.0998535 14.6987 -0.0998535 14.3003 0.299561ZM14.5991 5.59937L6.3999 13.7996C6.8999 13.8992 7.49951 13.9998 7.99951 13.9998C11.5991 13.9998 14.3999 10.8992 15.5991 9.09937C16.0991 8.39917 16.0991 7.49976 15.5991 6.79956C15.4819 6.6228 15.2944 6.41089 15.0776 6.16479C14.9272 5.99292 14.7632 5.80444 14.5991 5.59937ZM4.99951 7.99976C4.99951 8.49976 5.09912 8.90015 5.30029 9.29956L9.30029 5.29956C8.8999 5.09937 8.49951 4.99976 7.99951 4.99976C6.97998 4.99976 6.10303 5.46851 5.56396 6.21069C5.20654 6.70483 4.99951 7.32007 4.99951 7.99976Z" fill="#2ba8ff"/>
</svg>