<?xml version="1.0" standalone="no"?>
<!DOCTYPE svg PUBLIC "-//W3C//DTD SVG 1.1//EN" "http://www.w3.org/Graphics/SVG/1.1/DTD/svg11.dtd" >
<svg xmlns="http://www.w3.org/2000/svg" xmlns:xlink="http://www.w3.org/1999/xlink" version="1.1">
<metadata></metadata>
<defs>
<font id="renner_lightlight" horiz-adv-x="568" >
<font-face units-per-em="1000" ascent="800" descent="-200" />
<missing-glyph horiz-adv-x="300" />
<glyph horiz-adv-x="0" />
<glyph unicode="&#xd;" horiz-adv-x="333" />
<glyph unicode=" "  horiz-adv-x="300" />
<glyph unicode="&#x09;" horiz-adv-x="300" />
<glyph unicode="&#xa0;" horiz-adv-x="300" />
<glyph unicode="!" horiz-adv-x="284" d="M105 24q0 16 11 27t26 11t26.5 -11t11.5 -27q0 -15 -11.5 -26t-26.5 -11t-26 10.5t-11 26.5zM110 700h65l-13 -500h-39z" />
<glyph unicode="&#x22;" horiz-adv-x="440" d="M314 700h62l-76 -292h-36zM134 700h62l-76 -292h-36z" />
<glyph unicode="#" horiz-adv-x="591" d="M251 700h49l-51 -211h160l52 211h49l-51 -211h97v-43h-108l-45 -187h113v-43h-124l-52 -216h-49l53 216h-161l-53 -216h-49l52 216h-98v43h109l45 187h-114v43h125zM354 259l46 187h-161l-46 -187h161z" />
<glyph unicode="$" horiz-adv-x="580" d="M436 528q-54 128 -158 128q-63 0 -98.5 -31t-35.5 -85q0 -31 13.5 -55.5t40.5 -43t52.5 -30.5t63.5 -26q174 -63 174 -201q0 -83 -46.5 -135t-137.5 -57v-104h-49v105q-73 9 -125.5 62t-80.5 132l47 27q65 -171 192 -171q72 0 107.5 36.5t35.5 100.5t-45 101t-120 65 q-180 66 -180 198q0 66 48 111.5t121 52.5v110h48v-110q67 -8 113 -52t65 -100z" />
<glyph unicode="%" horiz-adv-x="731" d="M567 700h50l-453 -700h-50zM435 146q0 -48 29 -80.5t78 -32.5t78 32.5t29 80.5t-29 80.5t-78 32.5t-78 -32.5t-29 -80.5zM388 146q0 67 42.5 111.5t111.5 44.5t111.5 -44.5t42.5 -111.5t-42.5 -111.5t-111.5 -44.5t-111.5 44.5t-42.5 111.5zM82 554q0 -48 29 -80.5 t78 -32.5t78 32.5t29 80.5t-29 80.5t-78 32.5t-78 -32.5t-29 -80.5zM35 554q0 67 42.5 111.5t111.5 44.5t111.5 -44.5t42.5 -111.5t-42.5 -111.5t-111.5 -44.5t-111.5 44.5t-42.5 111.5z" />
<glyph unicode="&#x26;" horiz-adv-x="675" d="M245 357q-35 -19 -54 -31t-45.5 -34t-38.5 -49.5t-12 -60.5q0 -66 47 -105t118 -39q95 0 188 88zM215 392l-8 9q-2 2 -21 23t-26 30.5t-20 29.5t-18 39.5t-5 40.5q0 65 44.5 106t118.5 41q72 0 114 -44t42 -105q0 -92 -146 -180l-1 -1l192 -221q43 49 121 156l41 -25 q-102 -136 -130 -167l108 -124h-62l-79 90q-105 -100 -223 -100q-90 0 -153.5 51.5t-63.5 137.5q0 44 15.5 79t46.5 61t53 40t60 33zM259 416q124 72 124 146q0 43 -27 72.5t-76 29.5q-52 0 -80.5 -28t-28.5 -72q0 -12 2 -22.5t7.5 -22t9 -18.5t13 -19.5t13 -17t16.5 -18.5 t15 -17z" />
<glyph unicode="'" horiz-adv-x="260" d="M134 700h62l-76 -292h-36z" />
<glyph unicode="(" horiz-adv-x="282" d="M205 780h47q-104 -222 -104 -490t104 -490h-47q-115 216 -115 490t115 490z" />
<glyph unicode=")" horiz-adv-x="282" d="M77 -200h-47q104 222 104 490t-104 490h47q115 -216 115 -490t-115 -490z" />
<glyph unicode="*" horiz-adv-x="592" d="M273 700h46l-6 -163l154 56l14 -45l-157 -44l101 -128l-38 -28l-91 136l-91 -136l-38 28l101 128l-157 44l14 45l154 -56z" />
<glyph unicode="+" horiz-adv-x="589" d="M265 492h55v-211h200v-52h-200v-211h-55v211h-200v52h200v211z" />
<glyph unicode="," horiz-adv-x="295" d="M159 104l52 -20l-110 -250l-37 13z" />
<glyph unicode="-" horiz-adv-x="210" d="M5 226v49h200v-49h-200z" />
<glyph unicode="." horiz-adv-x="284" d="M105 24q0 16 11 27t26 11t26 -11t11 -27t-11 -26.5t-26 -10.5t-26 10.5t-11 26.5z" />
<glyph unicode="/" horiz-adv-x="499" d="M431 700h53l-416 -850h-53z" />
<glyph unicode="0" horiz-adv-x="580" d="M46 350q0 156 67.5 258t176.5 102t176.5 -102t67.5 -258t-67.5 -258t-176.5 -102t-176.5 102t-67.5 258zM101 350q0 -133 51.5 -220.5t137.5 -87.5t137.5 87.5t51.5 220.5t-51.5 220.5t-137.5 87.5t-137.5 -87.5t-51.5 -220.5z" />
<glyph unicode="1" horiz-adv-x="434" d="M86 599v57l216 52v-708h-55v641z" />
<glyph unicode="2" horiz-adv-x="547" d="M22 0l327 345q81 86 81 166q0 58 -38 103t-109 45q-77 0 -123.5 -54.5t-46.5 -144.5h-55q0 112 61.5 181.5t163.5 69.5q69 0 117 -33t67.5 -77.5t19.5 -93.5q0 -93 -95 -192l-255 -263h363v-52h-478z" />
<glyph unicode="3" horiz-adv-x="548" d="M281 -10q-99 0 -159 55.5t-60 139.5h56q0 -63 44.5 -103t118.5 -40q72 0 115 40t43 105q0 72 -57 112t-131 40v49q69 0 118.5 39t49.5 99q0 57 -35 95.5t-98 38.5q-62 0 -101.5 -38t-39.5 -96h-53q0 82 53.5 133t139.5 51t138 -53.5t52 -128.5q0 -57 -38 -100.5 t-100 -62.5q71 -18 114.5 -64.5t43.5 -119.5q0 -86 -60 -138.5t-154 -52.5z" />
<glyph unicode="4" horiz-adv-x="571" d="M429 140v-140h-55v140h-352l386 560h21v-511h110v-49h-110zM374 189v384l-260 -384h260z" />
<glyph unicode="5" horiz-adv-x="561" d="M510 230q0 -115 -67 -177.5t-170 -62.5q-159 0 -233 147l47 31q26 -56 74.5 -91t111.5 -35q82 0 131 50t49 138q0 79 -48.5 128.5t-121.5 49.5q-56 0 -98.5 -18.5t-90.5 -62.5l92 373h330v-49h-288l-59 -236q59 43 136 43q88 0 146.5 -64t58.5 -164z" />
<glyph unicode="6" horiz-adv-x="560" d="M330 700h69l-209 -285q42 34 113 34q86 0 146.5 -65t60.5 -158q0 -105 -64 -170.5t-166 -65.5t-166 65.5t-64 170.5q0 84 49 151zM103 226q0 -81 49.5 -133.5t127.5 -52.5t127.5 52.5t49.5 133.5q0 77 -50.5 129.5t-122.5 52.5q-81 0 -131 -52.5t-50 -129.5z" />
<glyph unicode="7" horiz-adv-x="521" d="M32 648v52h482l-349 -700h-58l324 648h-399z" />
<glyph unicode="8" horiz-adv-x="534" d="M112 194q0 -69 44 -112t111 -43t111 43t44 112q0 64 -47.5 108.5t-107.5 44.5t-107.5 -44.5t-47.5 -108.5zM135 529q0 -56 41 -94.5t91 -38.5t91 38.5t41 94.5t-37.5 94t-94.5 38t-94.5 -38t-37.5 -94zM82 535q0 72 53 123.5t132 51.5t132 -51.5t53 -123.5 q0 -58 -31.5 -101.5t-82.5 -61.5q61 -20 99 -68t38 -116q0 -84 -58 -141t-150 -57t-150 57t-58 141q0 68 38 116t99 68q-51 18 -82.5 61.5t-31.5 101.5z" />
<glyph unicode="9" horiz-adv-x="560" d="M230 0h-69l209 285q-42 -34 -113 -34q-86 0 -146.5 65t-60.5 158q0 105 64 170.5t166 65.5t166 -65.5t64 -170.5q0 -84 -49 -151zM457 474q0 81 -49.5 133.5t-127.5 52.5t-127.5 -52.5t-49.5 -133.5q0 -77 50.5 -129.5t122.5 -52.5q81 0 131 52.5t50 129.5z" />
<glyph unicode=":" horiz-adv-x="300" d="M105 392q0 16 11 26.5t26 10.5t26 -10.5t11 -26.5t-11 -27t-26 -11t-26 11t-11 27zM105 24q0 16 11 27t26 11t26 -11t11 -27t-11 -26.5t-26 -10.5t-26 10.5t-11 26.5z" />
<glyph unicode=";" horiz-adv-x="308" d="M159 104l52 -20l-110 -250l-37 13zM135 392q0 16 11 26.5t26 10.5t26 -10.5t11 -26.5t-11 -27t-26 -11t-26 11t-11 27z" />
<glyph unicode="&#x3c;" horiz-adv-x="640" d="M151 260l424 -181v-52l-510 216v29l510 216v-52z" />
<glyph unicode="=" horiz-adv-x="615" d="M65 298v49h485v-49h-485zM65 158v49h485v-49h-485z" />
<glyph unicode="&#x3e;" horiz-adv-x="640" d="M489 255l-424 181v52l510 -216v-29l-510 -216v52z" />
<glyph unicode="?" horiz-adv-x="551" d="M430 508q0 70 -43.5 111.5t-119.5 41.5q-103 0 -162 -95l-43 27q38 58 85.5 87.5t125.5 29.5q93 0 151.5 -57.5t58.5 -144.5q0 -80 -64.5 -138t-153.5 -61l-4 -139h-39l-14 175h15q90 0 148.5 49t58.5 114zM203 24q0 16 11 27t26 11t26 -11t11 -27t-11 -26.5t-26 -10.5 t-26 10.5t-11 26.5z" />
<glyph unicode="@" horiz-adv-x="770" d="M35 320q0 166 107 277.5t273 111.5q76 0 138 -27.5t101 -72.5t60 -101.5t21 -117.5q0 -116 -56.5 -177.5t-122.5 -61.5q-37 0 -60 24t-26 64q-50 -78 -137 -78q-58 0 -97.5 42.5t-39.5 114.5q0 98 56 154.5t126 56.5q40 0 70 -24t45 -63l12 78h50l-41 -231q-2 -14 -2 -30 q0 -64 50 -64q43 0 85 52t42 143q0 113 -73 194.5t-201 81.5q-148 0 -241 -98.5t-93 -247.5q0 -132 75.5 -209t204.5 -77q116 0 217 60l24 -39q-39 -22 -63 -32.5t-72 -21t-106 -10.5q-155 0 -240.5 88.5t-85.5 240.5zM246 320q0 -51 26.5 -81.5t71.5 -30.5q52 0 91.5 43.5 t39.5 118.5q0 49 -27 81t-70 32q-52 0 -92 -44.5t-40 -118.5z" />
<glyph unicode="A" horiz-adv-x="636" d="M167 235l-96 -235h-62l309 727l309 -727h-62l-97 235h-301zM189 287h258l-129 313z" />
<glyph unicode="B" horiz-adv-x="532" d="M84 700h152q95 0 149.5 -43.5t54.5 -125.5q0 -58 -33 -95.5t-92 -51.5q72 -15 118 -61t46 -120q0 -100 -63.5 -151.5t-169.5 -51.5h-162v700zM139 651v-243h97q65 0 107 30.5t42 89.5q0 57 -40.5 90t-108.5 33h-97zM139 359v-310h107q82 0 129.5 40.5t47.5 116.5 q0 71 -51.5 112t-125.5 41h-107z" />
<glyph unicode="C" horiz-adv-x="685" d="M103 350q0 -132 81.5 -217.5t201.5 -85.5q140 0 225 96v-74q-46 -40 -98.5 -59t-126.5 -19q-146 0 -244 101.5t-98 257.5t98 257.5t244 101.5q74 0 126.5 -19t98.5 -59v-73q-82 95 -225 95q-120 0 -201.5 -85.5t-81.5 -217.5z" />
<glyph unicode="D" horiz-adv-x="662" d="M139 55h135q131 0 210 80.5t79 214.5t-79 214.5t-210 80.5h-135v-590zM274 0h-190v700h190q153 0 248.5 -97t95.5 -253t-95.5 -253t-248.5 -97z" />
<glyph unicode="E" horiz-adv-x="534" d="M139 358v-306h321v-52h-376v700h376v-52h-321v-238h301v-52h-301z" />
<glyph unicode="F" horiz-adv-x="480" d="M139 353v-353h-55v700h336v-52h-281v-243h271v-52h-271z" />
<glyph unicode="G" horiz-adv-x="771" d="M411 297v52h311q0 -149 -90 -253.5t-239 -104.5q-151 0 -250 101.5t-99 257.5t99 257.5t250 101.5q189 0 286 -150l-40 -35q-35 60 -99 95t-147 35q-125 0 -208 -85.5t-83 -218.5t83 -218.5t208 -85.5q113 0 185 72t86 179h-253z" />
<glyph unicode="H" horiz-adv-x="687" d="M84 700h55v-293h409v293h56v-700h-56v355h-409v-355h-55v700z" />
<glyph unicode="I" horiz-adv-x="219" d="M82 700h55v-700h-55v700z" />
<glyph unicode="J" horiz-adv-x="222" d="M-91 -126q33 -42 91 -42q86 0 86 118v750h53v-760q0 -160 -141 -160q-36 0 -70.5 17t-47.5 35z" />
<glyph unicode="K" horiz-adv-x="520" d="M427 700h70l-308 -328l323 -372h-70l-305 353v-353h-55v700h55v-312z" />
<glyph unicode="L" horiz-adv-x="442" d="M84 700h55v-648h289v-52h-344v700z" />
<glyph unicode="M" horiz-adv-x="818" d="M163 551l-60 -551h-55l81 727l280 -538l280 538l81 -727h-55l-60 551l-246 -470z" />
<glyph unicode="N" horiz-adv-x="731" d="M600 700h55v-727l-532 606v-579h-55v727l532 -608v581z" />
<glyph unicode="O" horiz-adv-x="783" d="M44 350q0 155 99 257t249 102t249 -102t99 -257t-99 -257t-249 -102t-249 102t-99 257zM102 350q0 -131 82 -217.5t208 -86.5t207.5 86t81.5 218t-81.5 218t-207.5 86t-208 -86.5t-82 -217.5z" />
<glyph unicode="P" horiz-adv-x="520" d="M139 286v-286h-55v700h164q100 0 164.5 -56t64.5 -151t-64.5 -151t-164.5 -56h-109zM139 338h109q78 0 125.5 40.5t47.5 114.5t-47.5 114.5t-125.5 40.5h-109v-310z" />
<glyph unicode="Q" horiz-adv-x="782" d="M387 300h73l154 -150q67 85 67 200q0 132 -81.5 218t-207.5 86t-208 -86.5t-82 -217.5t82 -217.5t208 -86.5q109 0 187 67zM44 350q0 155 99 257t249 102t249 -102t99 -257q0 -141 -84 -241l112 -109h-73l-75 73q-95 -82 -228 -82q-150 0 -249 102t-99 257z" />
<glyph unicode="R" horiz-adv-x="523" d="M139 294v-294h-55v700h160q104 0 170.5 -54.5t66.5 -148.5q0 -83 -52.5 -135.5t-138.5 -64.5l213 -297h-68l-204 294h-92zM139 343h105q83 0 132.5 40t49.5 114t-50 114t-132 40h-105v-308z" />
<glyph unicode="S" horiz-adv-x="524" d="M87 214q66 -171 192 -171q72 0 107.5 36.5t35.5 100.5q0 34 -14 61.5t-40 47.5t-51 32.5t-60 25.5q-180 66 -180 194q0 75 55 121.5t136 46.5q78 0 130.5 -45.5t73.5 -107.5l-45 -28q-54 128 -158 128q-59 0 -96.5 -33t-37.5 -86q0 -29 13.5 -53t40.5 -42t52.5 -30.5 t63.5 -26.5q174 -63 174 -201q0 -87 -51.5 -140t-151.5 -53q-85 0 -145 54.5t-91 141.5z" />
<glyph unicode="T" horiz-adv-x="451" d="M14 648v52h423v-52h-184v-648h-55v648h-184z" />
<glyph unicode="U" horiz-adv-x="606" d="M79 700h55v-474q0 -85 44.5 -134.5t124.5 -49.5t124.5 49.5t44.5 134.5v474h55v-474q0 -106 -60 -171t-164 -65t-164 65t-60 171v474z" />
<glyph unicode="V" horiz-adv-x="636" d="M318 101l247 599h62l-309 -727l-309 727h62z" />
<glyph unicode="W" horiz-adv-x="974" d="M700 122l199 578h61l-259 -727l-214 603l-214 -603l-259 727h61l199 -578l213 605z" />
<glyph unicode="X" horiz-adv-x="533" d="M438 700h66l-207 -333l222 -367h-66l-184 318l-189 -318h-66l227 367l-202 333h66l165 -285z" />
<glyph unicode="Y" horiz-adv-x="539" d="M468 700h62l-235 -411v-289h-55v288l-231 412h62l196 -362z" />
<glyph unicode="Z" horiz-adv-x="541" d="M37 648v52h486l-415 -648h399v-52h-490l415 648h-395z" />
<glyph unicode="[" horiz-adv-x="284" d="M152 731v-902h112v-49h-164v1000h164v-49h-112z" />
<glyph unicode="\" horiz-adv-x="483" d="M15 700h56l397 -700h-56z" />
<glyph unicode="]" horiz-adv-x="284" d="M132 -171v902h-112v49h164v-1000h-164v49h112z" />
<glyph unicode="^" horiz-adv-x="510" d="M255 650l-136 -190h-54l178 250h24l178 -250h-54z" />
<glyph unicode="_" horiz-adv-x="500" d="M0 -123v37h500v-37h-500z" />
<glyph unicode="`" horiz-adv-x="366" d="M85 673l48 27l158 -160l-29 -20z" />
<glyph unicode="a" horiz-adv-x="465" d="M100 369l-26 40q77 61 168 61q74 0 116.5 -38.5t42.5 -105.5v-326h-52v83q-19 -42 -61.5 -67.5t-97.5 -25.5q-68 0 -112 36.5t-44 102.5q0 74 54 114.5t136 40.5q73 0 125 -37v79q0 46 -29.5 72t-77.5 26q-78 0 -142 -55zM87 135q0 -50 31.5 -74t83.5 -24q65 0 106 36 t41 99v39q-53 32 -123 32q-63 0 -101 -28.5t-38 -79.5z" />
<glyph unicode="b" horiz-adv-x="558" d="M467 230q0 87 -51 139t-126 52q-66 0 -115 -55t-49 -136t49 -136t115 -55q75 0 126 52t51 139zM519 230q0 -108 -63.5 -174t-158.5 -66q-58 0 -102.5 31.5t-68.5 86.5v-108h-52v780h52v-428q24 55 68.5 86.5t102.5 31.5q95 0 158.5 -66t63.5 -174z" />
<glyph unicode="c" horiz-adv-x="482" d="M87 230q0 -83 52.5 -137t130.5 -54q53 0 97 22.5t61 52.5v-65q-22 -25 -65.5 -42t-92.5 -17q-101 0 -168.5 68t-67.5 172t67.5 172t168.5 68q49 0 92.5 -17t65.5 -42v-65q-17 30 -61 52.5t-97 22.5q-78 0 -130.5 -54t-52.5 -137z" />
<glyph unicode="d" horiz-adv-x="558" d="M92 230q0 -87 50.5 -139t125.5 -52q66 0 115 55t49 136t-49 136t-115 55q-75 0 -125.5 -52t-50.5 -139zM39 230q0 108 63.5 174t158.5 66q58 0 102.5 -31.5t68.5 -86.5v428h52v-780h-52v108q-24 -55 -68.5 -86.5t-102.5 -31.5q-95 0 -158.5 66t-63.5 174z" />
<glyph unicode="e" horiz-adv-x="509" d="M39 231q0 107 62 173t159 66q91 0 151 -63.5t60 -164.5q0 -9 -2 -25h-377q4 -81 49.5 -129.5t116.5 -48.5q104 0 163 95l42 -27q-37 -56 -83 -86.5t-128 -30.5q-91 0 -152 68.5t-61 172.5zM420 262q-4 70 -49 116t-112 46q-66 0 -114 -44t-52 -118h327z" />
<glyph unicode="f" horiz-adv-x="282" d="M270 704q-22 33 -61 33q-68 0 -68 -105v-172h119v-49h-119v-411h-52v411h-45v49h45v178q0 72 30.5 111.5t92.5 39.5q55 0 87 -43z" />
<glyph unicode="g" horiz-adv-x="558" d="M92 230q0 -87 50.5 -139t125.5 -52q66 0 115 55.5t49 137.5q0 78 -49 133.5t-115 55.5q-75 0 -125.5 -52t-50.5 -139zM39 230q0 108 63.5 174t158.5 66q58 0 102.5 -31.5t68.5 -86.5v108h52v-450q0 -114 -64 -177t-156 -63q-95 0 -154.5 55.5t-59.5 144.5h53 q0 -65 44.5 -108t116.5 -43q70 0 119 49t49 142v98q-24 -55 -68.5 -86.5t-102.5 -31.5q-95 0 -158.5 66t-63.5 174z" />
<glyph unicode="h" horiz-adv-x="505" d="M374 296q0 125 -108 125q-58 0 -96.5 -41t-38.5 -100v-280h-52v780h52v-410q21 46 59.5 73t87.5 27q71 0 109.5 -44t38.5 -124v-302h-52v296z" />
<glyph unicode="i" horiz-adv-x="232" d="M90 460h52v-460h-52v460zM79 668q0 15 10.5 26t26.5 11t26.5 -11t10.5 -26t-10.5 -26t-26.5 -11t-26.5 11t-10.5 26z" />
<glyph unicode="j" horiz-adv-x="222" d="M-49 -134q23 -34 61 -34q68 0 68 105v523h52v-529q0 -72 -30.5 -111.5t-92.5 -39.5q-55 0 -87 43zM69 668q0 15 10.5 26t26.5 11t26.5 -11t10.5 -26t-10.5 -26t-26.5 -11t-26.5 11t-10.5 26z" />
<glyph unicode="k" horiz-adv-x="412" d="M323 460h67l-217 -190l236 -270h-66l-217 248v-248h-52v780h52v-493z" />
<glyph unicode="l" horiz-adv-x="210" d="M79 780h52v-780h-52v780z" />
<glyph unicode="m" horiz-adv-x="744" d="M665 302v-302h-52v296q0 125 -94 125q-52 0 -86.5 -41t-34.5 -100v-280h-52v296q0 125 -94 125q-52 0 -86.5 -41t-34.5 -100v-280h-52v460h52v-86q19 45 54 70.5t79 25.5q100 0 126 -99q20 45 58 72t83 27q65 0 99.5 -43.5t34.5 -124.5z" />
<glyph unicode="n" horiz-adv-x="505" d="M374 296q0 125 -108 125q-58 0 -96.5 -41t-38.5 -100v-280h-52v460h52v-90q21 46 59.5 73t87.5 27q71 0 109.5 -44t38.5 -124v-302h-52v296z" />
<glyph unicode="o" horiz-adv-x="550" d="M92 230q0 -83 52.5 -137t130.5 -54t130.5 54t52.5 137t-52.5 137t-130.5 54t-130.5 -54t-52.5 -137zM39 230q0 104 67.5 172t168.5 68t168.5 -68t67.5 -172t-67.5 -172t-168.5 -68t-168.5 68t-67.5 172z" />
<glyph unicode="p" horiz-adv-x="558" d="M467 230q0 87 -51 139t-126 52q-66 0 -115 -55t-49 -136t49 -136t115 -55q75 0 126 52t51 139zM519 230q0 -108 -63.5 -174t-158.5 -66q-58 0 -102.5 31.5t-68.5 86.5v-328h-52v680h52v-108q24 55 68.5 86.5t102.5 31.5q95 0 158.5 -66t63.5 -174z" />
<glyph unicode="q" horiz-adv-x="558" d="M92 230q0 -87 50.5 -139t125.5 -52q66 0 115 55t49 136t-49 136t-115 55q-75 0 -125.5 -52t-50.5 -139zM39 230q0 108 63.5 174t158.5 66q58 0 102.5 -31.5t68.5 -86.5v108h52v-680h-52v328q-24 -55 -68.5 -86.5t-102.5 -31.5q-95 0 -158.5 66t-63.5 174z" />
<glyph unicode="r" horiz-adv-x="321" d="M284 399q-31 22 -60 22q-48 0 -70.5 -39t-22.5 -102v-280h-52v460h52v-67q38 77 105 77q48 0 77 -28z" />
<glyph unicode="s" horiz-adv-x="403" d="M78 155q11 -50 43 -83t84 -33q44 0 71 23t27 59q0 26 -17.5 46.5t-38.5 30.5t-57 23q-62 22 -96.5 52t-34.5 85q0 50 38 80.5t94 30.5q59 0 99.5 -35.5t56.5 -80.5l-43 -16q-44 83 -113 83q-80 0 -80 -65q0 -35 31.5 -57t86.5 -42q128 -47 128 -131q0 -63 -42.5 -99 t-112.5 -36q-67 0 -113.5 44t-57.5 107z" />
<glyph unicode="t" horiz-adv-x="220" d="M84 620h52v-160h75v-49h-75v-411h-52v411h-75v49h75v160z" />
<glyph unicode="u" horiz-adv-x="505" d="M131 168q0 -129 108 -129q58 0 96.5 41t38.5 100v280h52v-460h-52v90q-21 -46 -59.5 -73t-87.5 -27q-71 0 -109.5 44.5t-38.5 127.5v298h52v-292z" />
<glyph unicode="v" horiz-adv-x="432" d="M4 460h59l153 -375l153 375h59l-212 -487z" />
<glyph unicode="w" horiz-adv-x="656" d="M9 460h58l124 -353l132 380l142 -381l124 354h58l-179 -487l-144 379l-136 -379z" />
<glyph unicode="x" horiz-adv-x="404" d="M330 460h60l-159 -223l169 -237h-60l-138 196l-138 -196h-60l169 237l-159 223h60l128 -182z" />
<glyph unicode="y" horiz-adv-x="434" d="M430 460l-300 -680h-58l118 267l-186 413h62l154 -363l152 363h58z" />
<glyph unicode="z" horiz-adv-x="448" d="M332 411h-289v49h384l-315 -411h307v-49h-402z" />
<glyph unicode="{" horiz-adv-x="299" d="M166 652v-186q0 -147 -62 -176q62 -29 62 -176v-186q0 -82 62 -82h29v-46h-44q-45 0 -72 34.5t-27 105.5v210q0 103 -52 120v40q52 17 52 120v210q0 71 27 105.5t72 34.5h44v-46h-29q-62 0 -62 -82z" />
<glyph unicode="|" horiz-adv-x="248" d="M100 785h48v-1000h-48v1000z" />
<glyph unicode="}" horiz-adv-x="299" d="M138 -72v186q0 147 62 176q-62 29 -62 176v186q0 82 -62 82h-29v46h44q45 0 72 -34.5t27 -105.5v-210q0 -103 52 -120v-40q-52 -17 -52 -120v-210q0 -71 -27 -105.5t-72 -34.5h-44v46h29q62 0 62 82z" />
<glyph unicode="~" horiz-adv-x="575" d="M69 205q0 51 35.5 86.5t85.5 35.5q54 0 121 -60q52 -46 85 -46q60 0 60 73q0 16 -5 28l51 -4q4 -16 4 -28q0 -48 -22 -76q-32 -42 -86 -42q-47 0 -113 57q-56 50 -96 50q-35 0 -54 -21.5t-19 -58.5q0 -11 4 -22l-48 4q-3 11 -3 24z" />
<glyph unicode="&#xa1;" horiz-adv-x="300" d="M195 431q0 -16 -11 -27t-26 -11t-26.5 11t-11.5 27q0 15 11.5 26t26.5 11t26 -10.5t11 -26.5zM190 -245h-65l13 500h39z" />
<glyph unicode="&#xa2;" horiz-adv-x="580" d="M292 578h44l-2 -108q45 -3 84 -19.5t59 -39.5v-65q-17 30 -61 52.5t-97 22.5q-79 0 -131 -54.5t-52 -136.5t52 -136.5t131 -54.5q53 0 97 22.5t61 52.5v-65q-20 -23 -59 -39.5t-84 -19.5l2 -102h-44l2 103q-92 9 -151.5 75.5t-59.5 163.5t59.5 163.5t151.5 75.5z" />
<glyph unicode="&#xa3;" horiz-adv-x="580" d="M462 487q-4 66 -40 117.5t-105 51.5q-59 0 -98 -35.5t-39 -93.5q0 -38 13 -68.5t38.5 -65t33.5 -49.5h150v-49h-132q3 -15 3 -31q0 -60 -36 -117t-84 -95h343v-52h-433l32 36q24 27 31 35.5t25.5 30.5t24.5 31.5t17.5 28t15.5 31.5t7.5 29.5t3.5 32.5q0 22 -6 40h-152v49 h127q-5 8 -20 28.5t-22 33t-17 33t-14.5 42t-4.5 45.5q0 81 53.5 132.5t139.5 51.5q62 0 107 -36t63.5 -80.5t21.5 -89.5z" />
<glyph unicode="&#xa4;" horiz-adv-x="572" d="M105 300q0 -82 52 -136.5t129 -54.5t129 54.5t52 136.5t-52 136.5t-129 54.5t-129 -54.5t-52 -136.5zM79 55l-34 34l58 58q-51 65 -51 153t51 153l-58 58l34 34l57 -58q62 53 150 53q87 0 152 -54l59 59l33 -34l-60 -60q50 -65 50 -151t-50 -151l60 -60l-33 -34l-59 59 q-65 -54 -152 -54q-88 0 -150 53z" />
<glyph unicode="&#xa5;" horiz-adv-x="574" d="M39 282v49h189l-206 369h61l196 -362l202 362h61l-211 -369h190v-49h-213v-91h213v-49h-213v-142h-56v142h-213v49h213v91h-213z" />
<glyph unicode="&#xa6;" horiz-adv-x="248" d="M148 245v-240h-48v240h48zM100 695h48v-240h-48v240z" />
<glyph unicode="&#xa7;" horiz-adv-x="404" d="M73 147q9 -45 50 -76.5t92 -31.5q45 0 75 18t30 57q0 15 -4 27.5t-16 23.5t-18.5 17t-28 16t-26 12t-29.5 12q-29 12 -49.5 23t-43 27.5t-34.5 38.5t-12 48q0 43 28.5 74t83.5 42q-52 22 -82 48t-30 70q0 54 44 85.5t103 31.5q55 0 103 -26t61 -64l-41 -26q-14 30 -49 48 t-73 18q-40 0 -68 -17t-28 -50q0 -8 2.5 -15.5t8 -14t11 -12t15.5 -11.5t17 -10t19 -9.5t18.5 -8.5t19.5 -8t18 -7q61 -25 97.5 -55.5t36.5 -75.5q0 -103 -110 -122q51 -23 80.5 -52.5t29.5 -73.5q0 -65 -44.5 -96.5t-117.5 -31.5q-64 0 -118 38.5t-64 94.5zM209 460 q-48 -13 -73 -38.5t-25 -56.5q0 -21 9 -37t29 -29t33 -19t39 -17q44 7 71.5 34.5t27.5 64.5q0 34 -30 56t-81 42z" />
<glyph unicode="&#xa8;" horiz-adv-x="450" d="M88 672q0 16 11 26.5t26 10.5t26.5 -11t11.5 -26q0 -16 -11.5 -27t-26.5 -11t-26 11t-11 27zM288 672q0 16 11 26.5t26 10.5t26.5 -11t11.5 -26q0 -16 -11.5 -27t-26.5 -11t-26 11t-11 27z" />
<glyph unicode="&#xa9;" horiz-adv-x="800" d="M40 350q0 156 103 258t257 102t257 -102t103 -258t-103 -258t-257 -102t-257 102t-103 258zM77 350q0 -140 93 -233t230 -93t230 93t93 233t-93 233t-230 93t-230 -93t-93 -233zM223 350q0 -80 48 -131t122 -51q86 0 135 57v-44q-53 -47 -135 -47q-88 0 -147 61.5 t-59 154.5t59 154.5t147 61.5q82 0 135 -47v-44q-49 57 -135 57q-74 0 -122 -51t-48 -131z" />
<glyph unicode="&#xaa;" horiz-adv-x="238" d="M56 652l-13 21q36 30 84 30q37 0 58 -19.5t21 -52.5v-171h-26v41q-20 -46 -79 -46q-32 0 -55.5 20t-23.5 55t28.5 56.5t66.5 21.5t63 -19v42q0 23 -14.5 36t-38.5 13q-38 0 -71 -28zM49 530q0 -51 58 -51q31 0 52 18t21 49v25q-27 17 -62 17q-29 0 -49 -16t-20 -42z" />
<glyph unicode="&#xab;" horiz-adv-x="500" d="M259 258l171 -208l-33 -30l-197 235l197 235l33 -30zM99 258l171 -208l-33 -30l-197 235l197 235l33 -30z" />
<glyph unicode="&#xac;" horiz-adv-x="620" d="M65 326v49h490v-200h-49v151h-441z" />
<glyph unicode="&#xad;" horiz-adv-x="210" d="M5 226v49h200v-49h-200z" />
<glyph unicode="&#xae;" horiz-adv-x="800" d="M40 350q0 156 103 258t257 102t257 -102t103 -258t-103 -258t-257 -102t-257 102t-103 258zM77 350q0 -140 93 -233t230 -93t230 93t93 233t-93 233t-230 93t-230 -93t-93 -233zM318 326v-176h-34v420h96q62 0 102.5 -33t40.5 -89q0 -50 -31.5 -81.5t-82.5 -38.5 l127 -178h-41l-122 176h-55zM318 356h62q50 0 80 24t30 68t-30 68t-80 24h-62v-184z" />
<glyph unicode="&#xaf;" horiz-adv-x="510" d="M80 626v49h350v-49h-350z" />
<glyph unicode="&#xb0;" horiz-adv-x="278" d="M48 600q0 -41 26 -67t65 -26t65 26t26 67t-26 67t-65 26t-65 -26t-26 -67zM20 600q0 52 34 86t85 34t85 -34t34 -86t-34 -86t-85 -34t-85 34t-34 86z" />
<glyph unicode="&#xb1;" horiz-adv-x="613" d="M279 620h55v-209h214v-52h-214v-209h-55v209h-214v52h214v209zM65 0v52h483v-52h-483z" />
<glyph unicode="&#xb2;" horiz-adv-x="340" d="M27 282l196 208q49 52 49 99q0 35 -23 62t-66 27q-46 0 -73.5 -33t-27.5 -87h-33q0 67 36.5 109t97.5 42q60 0 91 -37.5t31 -84.5q0 -58 -56 -116l-153 -158h217v-31h-286z" />
<glyph unicode="&#xb3;" horiz-adv-x="310" d="M159 274q-59 0 -95.5 33.5t-36.5 83.5h34q0 -38 27 -62t71 -24q43 0 69 24t26 63q0 43 -34 67t-79 24v30q41 0 71 23.5t30 59.5q0 34 -21 57t-59 23q-37 0 -61 -22.5t-24 -57.5h-32q0 49 32.5 79.5t84.5 30.5t82.5 -32.5t30.5 -77.5q0 -34 -22.5 -59.5t-59.5 -37.5 q42 -10 68 -38t26 -72q0 -51 -35.5 -83t-92.5 -32z" />
<glyph unicode="&#xb4;" horiz-adv-x="366" d="M281 673l-177 -153l-29 20l158 160z" />
<glyph unicode="&#xb5;" horiz-adv-x="505" d="M131 460v-292q0 -129 108 -129q58 0 96.5 41t38.5 100v280h52v-460h-52v81q-23 -42 -61.5 -66.5t-85.5 -24.5q-59 0 -96 31v-341h-52v780h52z" />
<glyph unicode="&#xb6;" horiz-adv-x="526" d="M288 270q-98 0 -163 57t-65 158t65 158t163 57h178v-920h-46v877h-86v-877h-46v490z" />
<glyph unicode="&#xb7;" horiz-adv-x="276" d="M101 232q0 16 11 27t26 11t26.5 -11t11.5 -27q0 -15 -11.5 -26t-26.5 -11t-26 10.5t-11 26.5z" />
<glyph unicode="&#xb8;" horiz-adv-x="350" d="M188 36h41l-57 -92q13 4 30 4q28 0 50.5 -20t22.5 -54q0 -44 -31.5 -69t-75.5 -25q-51 0 -89 38l23 26q34 -28 66 -28q30 0 49.5 15.5t19.5 42.5q0 47 -55 47q-37 0 -67 -21z" />
<glyph unicode="&#xb9;" horiz-adv-x="470" d="M148 633v35l130 31v-425h-33v385z" />
<glyph unicode="&#xba;" horiz-adv-x="278" d="M48 580q0 -41 26 -67t65 -26t65 26t26 67t-26 67t-65 26t-65 -26t-26 -67zM20 580q0 52 34 86t85 34t85 -34t34 -86t-34 -86t-85 -34t-85 34t-34 86z" />
<glyph unicode="&#xbb;" horiz-adv-x="500" d="M241 252l-171 208l33 30l197 -235l-197 -235l-33 30zM401 252l-171 208l33 30l197 -235l-197 -235l-33 30z" />
<glyph unicode="&#xbc;" horiz-adv-x="754" d="M26 633v35l130 31v-425h-33v385zM639 700h44l-541 -700h-44zM644 84v-84h-33v84h-212l232 336h13v-307h66v-29h-66zM611 113v231l-157 -231h157z" />
<glyph unicode="&#xbd;" horiz-adv-x="819" d="M494 2l196 207q49 53 49 100q0 35 -22.5 62t-65.5 27q-46 0 -74 -33t-28 -87h-33q0 67 37 109t98 42q60 0 91 -38t31 -85q0 -56 -57 -115l-153 -158h218v-31h-287zM26 633v35l130 31v-425h-33v385zM639 700h44l-541 -700h-44z" />
<glyph unicode="&#xbe;" horiz-adv-x="820" d="M164 274q-59 0 -95.5 33.5t-36.5 83.5h34q0 -38 27 -62t71 -24q43 0 69 24t26 63q0 43 -34 67t-79 24v30q41 0 71 23.5t30 59.5q0 34 -21 57t-59 23q-37 0 -61 -22.5t-24 -57.5h-32q0 49 32.5 79.5t84.5 30.5t82.5 -32.5t30.5 -77.5q0 -34 -22.5 -59.5t-59.5 -37.5 q42 -10 68 -38t26 -72q0 -51 -35.5 -83t-92.5 -32zM706 700h44l-541 -700h-44zM711 84v-84h-33v84h-212l232 336h13v-307h66v-29h-66zM678 113v231l-157 -231h157z" />
<glyph unicode="&#xbf;" horiz-adv-x="551" d="M121 192q0 -70 43.5 -111.5t119.5 -41.5q103 0 162 95l43 -27q-38 -58 -85.5 -87.5t-125.5 -29.5q-93 0 -151.5 57.5t-58.5 144.5q0 80 64.5 138t153.5 61l4 139h39l14 -175h-15q-90 0 -148.5 -49t-58.5 -114zM348 676q0 -16 -11 -27t-26 -11t-26 11t-11 27t11 26.5 t26 10.5t26 -10.5t11 -26.5z" />
<glyph unicode="&#xc0;" horiz-adv-x="636" d="M186 940l48 27l158 -160l-29 -20zM167 235l-96 -235h-62l309 727l309 -727h-62l-97 235h-301zM189 287h258l-129 313z" />
<glyph unicode="&#xc1;" horiz-adv-x="636" d="M450 940l-177 -153l-29 20l158 160zM167 235l-96 -235h-62l309 727l309 -727h-62l-97 235h-301zM189 287h258l-129 313z" />
<glyph unicode="&#xc2;" horiz-adv-x="636" d="M318 874l-127 -111l-33 27l160 140l160 -140l-33 -27zM167 235l-96 -235h-62l309 727l309 -727h-62l-97 235h-301zM189 287h258l-129 313z" />
<glyph unicode="&#xc3;" horiz-adv-x="636" d="M169 806q5 31 29.5 51.5t57.5 20.5q31 0 64.5 -23.5t59.5 -23.5q29 0 56 48l31 -27q-28 -65 -90 -65q-29 0 -64.5 23.5t-56.5 23.5q-27 0 -39.5 -16t-12.5 -35zM167 235l-96 -235h-62l309 727l309 -727h-62l-97 235h-301zM189 287h258l-129 313z" />
<glyph unicode="&#xc4;" horiz-adv-x="636" d="M181 832q0 16 11 27t26 11t26 -11t11 -27t-11 -26.5t-26 -10.5t-26 10.5t-11 26.5zM381 832q0 16 11 27t26 11t26 -11t11 -27t-11 -26.5t-26 -10.5t-26 10.5t-11 26.5zM167 235l-96 -235h-62l309 727l309 -727h-62l-97 235h-301zM189 287h258l-129 313z" />
<glyph unicode="&#xc5;" horiz-adv-x="636" d="M251 802q0 -30 20 -49t47 -19t47 19t20 49t-20 49t-47 19t-47 -19t-20 -49zM216 802q0 43 30.5 71.5t71.5 28.5t71.5 -28.5t30.5 -71.5q0 -40 -27 -67.5t-65 -31.5l299 -703h-62l-97 235h-301l-96 -235h-62l299 703q-38 4 -65 31.5t-27 67.5zM189 287h258l-129 313z" />
<glyph unicode="&#xc6;" horiz-adv-x="934" d="M545 358v-306h315v-52h-370v238h-270l-153 -238h-62l450 700h405v-52h-315v-238h295v-52h-295zM490 657l-236 -367h236v367z" />
<glyph unicode="&#xc7;" horiz-adv-x="685" d="M103 350q0 -132 81.5 -217.5t201.5 -85.5q140 0 225 96v-74q-83 -74 -206 -78l-31 -49q13 4 30 4q28 0 50.5 -20t22.5 -54q0 -44 -31.5 -69t-75.5 -25q-51 0 -89 38l22 26q34 -28 67 -28q30 0 49 15.5t19 42.5q0 47 -55 47q-36 0 -66 -21l50 93q-140 7 -231.5 107.5 t-91.5 251.5q0 156 98 257.5t244 101.5q74 0 126.5 -19t98.5 -59v-73q-82 95 -225 95q-120 0 -201.5 -85.5t-81.5 -217.5z" />
<glyph unicode="&#xc8;" horiz-adv-x="534" d="M132 922l48 27l158 -160l-29 -20zM139 358v-306h321v-52h-376v700h376v-52h-321v-238h301v-52h-301z" />
<glyph unicode="&#xc9;" horiz-adv-x="534" d="M412 922l-177 -153l-29 20l158 160zM139 358v-306h321v-52h-376v700h376v-52h-321v-238h301v-52h-301z" />
<glyph unicode="&#xca;" horiz-adv-x="534" d="M278 880l-127 -111l-33 27l160 140l160 -140l-33 -27zM139 358v-306h321v-52h-376v700h376v-52h-321v-238h301v-52h-301z" />
<glyph unicode="&#xcb;" horiz-adv-x="534" d="M141 827q0 16 11 26.5t26 10.5t26 -10.5t11 -26.5t-11 -27t-26 -11t-26 11t-11 27zM341 827q0 16 11 26.5t26 10.5t26 -10.5t11 -26.5t-11 -27t-26 -11t-26 11t-11 27zM139 358v-306h321v-52h-376v700h376v-52h-321v-238h301v-52h-301z" />
<glyph unicode="&#xcc;" horiz-adv-x="219" d="M-31 922l49 27l158 -160l-30 -20zM82 700h55v-700h-55v700z" />
<glyph unicode="&#xcd;" horiz-adv-x="219" d="M250 922l-178 -153l-28 20l158 160zM82 700h55v-700h-55v700z" />
<glyph unicode="&#xce;" horiz-adv-x="219" d="M109 880l-127 -111l-33 27l160 140l160 -140l-33 -27zM82 700h55v-700h-55v700z" />
<glyph unicode="&#xcf;" horiz-adv-x="219" d="M-16 815q0 16 11 26.5t26 10.5t26.5 -11t11.5 -26q0 -16 -11.5 -27t-26.5 -11t-26 11t-11 27zM160 815q0 16 11 26.5t26 10.5t26.5 -11t11.5 -26q0 -16 -11.5 -27t-26.5 -11t-26 11t-11 27zM82 700h55v-700h-55v700z" />
<glyph unicode="&#xd0;" horiz-adv-x="680" d="M5 324v49h79v327h190q153 0 248.5 -97t95.5 -253t-95.5 -253t-248.5 -97h-190v324h-79zM139 373h166v-49h-166v-269h135q131 0 210 80.5t79 214.5t-79 214.5t-210 80.5h-135v-272z" />
<glyph unicode="&#xd1;" horiz-adv-x="731" d="M221 786q5 31 29.5 51.5t57.5 20.5q31 0 64.5 -23.5t59.5 -23.5q29 0 56 48l31 -27q-28 -65 -90 -65q-29 0 -64.5 23.5t-56.5 23.5q-27 0 -39.5 -16t-12.5 -35zM600 700h55v-727l-532 606v-579h-55v727l532 -608v581z" />
<glyph unicode="&#xd2;" horiz-adv-x="783" d="M266 922l48 27l158 -160l-29 -20zM44 350q0 155 99 257t249 102t249 -102t99 -257t-99 -257t-249 -102t-249 102t-99 257zM102 350q0 -131 82 -217.5t208 -86.5t207.5 86t81.5 218t-81.5 218t-207.5 86t-208 -86.5t-82 -217.5z" />
<glyph unicode="&#xd3;" horiz-adv-x="783" d="M518 922l-177 -153l-29 20l158 160zM44 350q0 155 99 257t249 102t249 -102t99 -257t-99 -257t-249 -102t-249 102t-99 257zM102 350q0 -131 82 -217.5t208 -86.5t207.5 86t81.5 218t-81.5 218t-207.5 86t-208 -86.5t-82 -217.5z" />
<glyph unicode="&#xd4;" horiz-adv-x="783" d="M392 880l-127 -111l-33 27l160 140l160 -140l-33 -27zM44 350q0 155 99 257t249 102t249 -102t99 -257t-99 -257t-249 -102t-249 102t-99 257zM102 350q0 -131 82 -217.5t208 -86.5t207.5 86t81.5 218t-81.5 218t-207.5 86t-208 -86.5t-82 -217.5z" />
<glyph unicode="&#xd5;" horiz-adv-x="783" d="M243 800q5 31 29.5 51.5t57.5 20.5q31 0 64.5 -23.5t59.5 -23.5q29 0 56 48l31 -27q-28 -65 -90 -65q-29 0 -64.5 23.5t-56.5 23.5q-27 0 -39.5 -16t-12.5 -35zM44 350q0 155 99 257t249 102t249 -102t99 -257t-99 -257t-249 -102t-249 102t-99 257zM102 350 q0 -131 82 -217.5t208 -86.5t207.5 86t81.5 218t-81.5 218t-207.5 86t-208 -86.5t-82 -217.5z" />
<glyph unicode="&#xd6;" horiz-adv-x="783" d="M250 819q0 15 11.5 26t26.5 11t26 -10.5t11 -26.5t-11 -27t-26 -11t-26.5 11t-11.5 27zM458 819q0 15 11.5 26t26.5 11t26 -10.5t11 -26.5t-11 -27t-26 -11t-26.5 11t-11.5 27zM44 350q0 155 99 257t249 102t249 -102t99 -257t-99 -257t-249 -102t-249 102t-99 257z M102 350q0 -131 82 -217.5t208 -86.5t207.5 86t81.5 218t-81.5 218t-207.5 86t-208 -86.5t-82 -217.5z" />
<glyph unicode="&#xd7;" horiz-adv-x="588" d="M108 32l-37 36l190 187l-190 187l36 36l187 -190l187 190l37 -36l-191 -187l190 -187l-36 -36l-187 190z" />
<glyph unicode="&#xd8;" horiz-adv-x="790" d="M698 743l39 -26l-95 -111q98 -103 98 -256q0 -155 -99 -257t-249 -102q-122 0 -214 71l-90 -105l-38 26l94 110q-100 103 -100 257q0 155 99 257t249 102q125 0 216 -72zM605 562l-391 -457q77 -59 178 -59q126 0 207.5 86t81.5 218q0 126 -76 212zM571 594 q-76 60 -179 60q-126 0 -208 -86.5t-82 -217.5q0 -127 79 -214z" />
<glyph unicode="&#xd9;" horiz-adv-x="606" d="M171 922l48 27l158 -160l-29 -20zM79 700h55v-474q0 -85 44.5 -134.5t124.5 -49.5t124.5 49.5t44.5 134.5v474h55v-474q0 -106 -60 -171t-164 -65t-164 65t-60 171v474z" />
<glyph unicode="&#xda;" horiz-adv-x="606" d="M435 922l-177 -153l-29 20l158 160zM79 700h55v-474q0 -85 44.5 -134.5t124.5 -49.5t124.5 49.5t44.5 134.5v474h55v-474q0 -106 -60 -171t-164 -65t-164 65t-60 171v474z" />
<glyph unicode="&#xdb;" horiz-adv-x="606" d="M303 880l-127 -111l-33 27l160 140l160 -140l-33 -27zM79 700h55v-474q0 -85 44.5 -134.5t124.5 -49.5t124.5 49.5t44.5 134.5v474h55v-474q0 -106 -60 -171t-164 -65t-164 65t-60 171v474z" />
<glyph unicode="&#xdc;" horiz-adv-x="606" d="M170 807q0 16 11 26.5t26 10.5t26 -10.5t11 -26.5t-11 -27t-26 -11t-26 11t-11 27zM362 807q0 16 11 26.5t26 10.5t26 -10.5t11 -26.5t-11 -27t-26 -11t-26 11t-11 27zM79 700h55v-474q0 -85 44.5 -134.5t124.5 -49.5t124.5 49.5t44.5 134.5v474h55v-474q0 -106 -60 -171 t-164 -65t-164 65t-60 171v474z" />
<glyph unicode="&#xdd;" horiz-adv-x="539" d="M410 922l-178 -153l-28 20l158 160zM468 700h62l-235 -411v-289h-55v288l-231 412h62l196 -362z" />
<glyph unicode="&#xde;" horiz-adv-x="538" d="M80 700h55v-140h123q103 0 170.5 -57.5t67.5 -152.5t-67.5 -152.5t-170.5 -57.5h-123v-140h-55v700zM135 508v-316h123q80 0 131.5 43t51.5 115q0 74 -51 116t-132 42h-123z" />
<glyph unicode="&#xdf;" horiz-adv-x="554" d="M264 39q78 0 135 54t57 138q0 82 -63.5 135.5t-148.5 53.5v49q82 0 127 35t45 96q0 63 -36 102t-111 39q-59 0 -98 -37t-39 -98v-606h-52v606q0 81 54.5 132.5t134.5 51.5q98 0 149 -49.5t51 -134.5q0 -131 -131 -163q78 -24 124.5 -82t46.5 -136q0 -103 -71 -169 t-174 -66v49z" />
<glyph unicode="&#xe0;" horiz-adv-x="465" d="M92 691l48 27l158 -160l-29 -20zM100 369l-26 40q77 61 168 61q74 0 116.5 -38.5t42.5 -105.5v-326h-52v83q-19 -42 -61.5 -67.5t-97.5 -25.5q-68 0 -112 36.5t-44 102.5q0 74 54 114.5t136 40.5q73 0 125 -37v79q0 46 -29.5 72t-77.5 26q-78 0 -142 -55zM87 135 q0 -50 31.5 -74t83.5 -24q65 0 106 36t41 99v39q-53 32 -123 32q-63 0 -101 -28.5t-38 -79.5z" />
<glyph unicode="&#xe1;" horiz-adv-x="465" d="M384 691l-177 -153l-29 20l158 160zM100 369l-26 40q77 61 168 61q74 0 116.5 -38.5t42.5 -105.5v-326h-52v83q-19 -42 -61.5 -67.5t-97.5 -25.5q-68 0 -112 36.5t-44 102.5q0 74 54 114.5t136 40.5q73 0 125 -37v79q0 46 -29.5 72t-77.5 26q-78 0 -142 -55zM87 135 q0 -50 31.5 -74t83.5 -24q65 0 106 36t41 99v39q-53 32 -123 32q-63 0 -101 -28.5t-38 -79.5z" />
<glyph unicode="&#xe2;" horiz-adv-x="465" d="M242 645l-127 -111l-33 27l160 140l160 -140l-33 -27zM100 369l-26 40q77 61 168 61q74 0 116.5 -38.5t42.5 -105.5v-326h-52v83q-19 -42 -61.5 -67.5t-97.5 -25.5q-68 0 -112 36.5t-44 102.5q0 74 54 114.5t136 40.5q73 0 125 -37v79q0 46 -29.5 72t-77.5 26 q-78 0 -142 -55zM87 135q0 -50 31.5 -74t83.5 -24q65 0 106 36t41 99v39q-53 32 -123 32q-63 0 -101 -28.5t-38 -79.5z" />
<glyph unicode="&#xe3;" horiz-adv-x="465" d="M89 573q5 31 29.5 51.5t57.5 20.5q31 0 64.5 -23.5t59.5 -23.5q29 0 56 48l31 -27q-28 -65 -90 -65q-29 0 -64.5 23.5t-56.5 23.5q-27 0 -39.5 -16t-12.5 -35zM100 369l-26 40q77 61 168 61q74 0 116.5 -38.5t42.5 -105.5v-326h-52v83q-19 -42 -61.5 -67.5t-97.5 -25.5 q-68 0 -112 36.5t-44 102.5q0 74 54 114.5t136 40.5q73 0 125 -37v79q0 46 -29.5 72t-77.5 26q-78 0 -142 -55zM87 135q0 -50 31.5 -74t83.5 -24q65 0 106 36t41 99v39q-53 32 -123 32q-63 0 -101 -28.5t-38 -79.5z" />
<glyph unicode="&#xe4;" horiz-adv-x="465" d="M109 575q0 16 11 27t26 11t26 -11t11 -27t-11 -26.5t-26 -10.5t-26 10.5t-11 26.5zM293 575q0 16 11 27t26 11t26 -11t11 -27t-11 -26.5t-26 -10.5t-26 10.5t-11 26.5zM100 369l-26 40q77 61 168 61q74 0 116.5 -38.5t42.5 -105.5v-326h-52v83q-19 -42 -61.5 -67.5 t-97.5 -25.5q-68 0 -112 36.5t-44 102.5q0 74 54 114.5t136 40.5q73 0 125 -37v79q0 46 -29.5 72t-77.5 26q-78 0 -142 -55zM87 135q0 -50 31.5 -74t83.5 -24q65 0 106 36t41 99v39q-53 32 -123 32q-63 0 -101 -28.5t-38 -79.5z" />
<glyph unicode="&#xe5;" horiz-adv-x="465" d="M175 630q0 -30 20 -49t47 -19t47 19t20 49t-20 49t-47 19t-47 -19t-20 -49zM140 630q0 43 30.5 71.5t71.5 28.5t71.5 -28.5t30.5 -71.5t-30.5 -71.5t-71.5 -28.5t-71.5 28.5t-30.5 71.5zM100 369l-26 40q77 61 168 61q74 0 116.5 -38.5t42.5 -105.5v-326h-52v83 q-19 -42 -61.5 -67.5t-97.5 -25.5q-68 0 -112 36.5t-44 102.5q0 74 54 114.5t136 40.5q73 0 125 -37v79q0 46 -29.5 72t-77.5 26q-78 0 -142 -55zM87 135q0 -50 31.5 -74t83.5 -24q65 0 106 36t41 99v39q-53 32 -123 32q-63 0 -101 -28.5t-38 -79.5z" />
<glyph unicode="&#xe6;" horiz-adv-x="825" d="M100 369l-26 40q75 61 170 61q65 0 101.5 -32.5t41.5 -88.5q26 57 76.5 89t119.5 32q80 0 143 -62.5t63 -165.5q0 -9 -2 -25h-385q4 -81 50 -129.5t117 -48.5q108 0 170 95l42 -27q-39 -59 -87 -88t-131 -29q-62 0 -111.5 34t-74.5 92q-11 -55 -60.5 -90.5t-114.5 -35.5 q-81 0 -124.5 37.5t-43.5 100.5q0 74 53.5 115t138.5 41q71 0 123 -37v73q0 44 -29 74t-77 30q-78 0 -143 -55zM87 134q0 -44 29 -70.5t86 -26.5q64 0 105.5 37.5t41.5 100.5v36q-52 32 -121 32q-67 0 -104 -29t-37 -80zM733 262q-4 73 -48 117.5t-110 44.5 q-72 0 -119.5 -45.5t-52.5 -116.5h330z" />
<glyph unicode="&#xe7;" horiz-adv-x="482" d="M87 230q0 -83 52.5 -137t130.5 -54q53 0 97 22.5t61 52.5v-65q-19 -23 -57.5 -39t-82.5 -19l-30 -50q13 4 30 4q27 0 49.5 -20t22.5 -54q0 -44 -31 -69t-75 -25q-52 0 -90 38l23 26q34 -28 67 -28q30 0 49 15.5t19 42.5q0 47 -55 47q-35 0 -66 -20l50 93q-94 7 -155.5 74 t-61.5 165q0 104 67.5 172t168.5 68q49 0 92.5 -17t65.5 -42v-65q-17 30 -61 52.5t-97 22.5q-78 0 -130.5 -54t-52.5 -137z" />
<glyph unicode="&#xe8;" horiz-adv-x="517" d="M114 695l48 27l158 -160l-29 -20zM39 231q0 107 63 173t162 66q93 0 154 -63.5t61 -164.5q0 -9 -2 -25h-385q4 -81 50 -129.5t120 -48.5q108 0 167 95l42 -27q-36 -55 -84.5 -86t-130.5 -31q-94 0 -155.5 68.5t-61.5 172.5zM423 262q-3 71 -47 116.5t-112 45.5 t-117.5 -44.5t-53.5 -117.5h330z" />
<glyph unicode="&#xe9;" horiz-adv-x="517" d="M414 695l-177 -153l-29 20l158 160zM39 231q0 107 63 173t162 66q93 0 154 -63.5t61 -164.5q0 -9 -2 -25h-385q4 -81 50 -129.5t120 -48.5q108 0 167 95l42 -27q-36 -55 -84.5 -86t-130.5 -31q-94 0 -155.5 68.5t-61.5 172.5zM423 262q-3 71 -47 116.5t-112 45.5 t-117.5 -44.5t-53.5 -117.5h330z" />
<glyph unicode="&#xea;" horiz-adv-x="517" d="M264 649l-127 -111l-33 27l160 140l160 -140l-33 -27zM39 231q0 107 63 173t162 66q93 0 154 -63.5t61 -164.5q0 -9 -2 -25h-385q4 -81 50 -129.5t120 -48.5q108 0 167 95l42 -27q-36 -55 -84.5 -86t-130.5 -31q-94 0 -155.5 68.5t-61.5 172.5zM423 262q-3 71 -47 116.5 t-112 45.5t-117.5 -44.5t-53.5 -117.5h330z" />
<glyph unicode="&#xeb;" horiz-adv-x="517" d="M126 575q0 16 11.5 27t26.5 11t26 -11t11 -27t-11 -26.5t-26 -10.5t-26.5 11t-11.5 26zM326 575q0 16 11.5 27t26.5 11t26 -11t11 -27t-11 -26.5t-26 -10.5t-26.5 11t-11.5 26zM39 231q0 107 63 173t162 66q93 0 154 -63.5t61 -164.5q0 -9 -2 -25h-385q4 -81 50 -129.5 t120 -48.5q108 0 167 95l42 -27q-36 -55 -84.5 -86t-130.5 -31q-94 0 -155.5 68.5t-61.5 172.5zM423 262q-3 71 -47 116.5t-112 45.5t-117.5 -44.5t-53.5 -117.5h330z" />
<glyph unicode="&#xec;" horiz-adv-x="232" d="M-42 695l48 27l158 -160l-29 -20zM90 460h52v-460h-52v460z" />
<glyph unicode="&#xed;" horiz-adv-x="232" d="M274 695l-177 -153l-29 20l158 160zM90 460h52v-460h-52v460z" />
<glyph unicode="&#xee;" horiz-adv-x="232" d="M116 647l-127 -111l-33 27l160 140l160 -140l-33 -27zM90 460h52v-460h-52v460z" />
<glyph unicode="&#xef;" horiz-adv-x="232" d="M-13 585q0 16 11 27t26 11t26 -11t11 -27t-11 -26.5t-26 -10.5t-26 10.5t-11 26.5zM171 585q0 16 11 27t26 11t26 -11t11 -27t-11 -26.5t-26 -10.5t-26 10.5t-11 26.5zM90 460h52v-460h-52v460z" />
<glyph unicode="&#xf0;" horiz-adv-x="560" d="M151 542v43h94l-84 115h69l82 -115h127v-43h-96l118 -165q49 -67 49 -151q0 -105 -64 -170.5t-166 -65.5t-166 65.5t-64 170.5q0 93 60.5 158t146.5 65q71 0 113 -34l-93 127h-126zM457 226q0 77 -50 129.5t-131 52.5q-72 0 -122.5 -52.5t-50.5 -129.5q0 -81 49.5 -133.5 t127.5 -52.5t127.5 53t49.5 133z" />
<glyph unicode="&#xf1;" horiz-adv-x="505" d="M104 561q5 31 29.5 51.5t57.5 20.5q31 0 64.5 -23.5t59.5 -23.5q29 0 56 48l31 -27q-28 -65 -90 -65q-29 0 -64.5 23.5t-56.5 23.5q-27 0 -39.5 -16t-12.5 -35zM374 296q0 125 -108 125q-58 0 -96.5 -41t-38.5 -100v-280h-52v460h52v-81q23 42 61.5 66.5t85.5 24.5 q71 0 109.5 -44t38.5 -124v-302h-52v296z" />
<glyph unicode="&#xf2;" horiz-adv-x="550" d="M125 695l48 27l158 -160l-29 -20zM92 230q0 -83 52.5 -137t130.5 -54t130.5 54t52.5 137t-52.5 137t-130.5 54t-130.5 -54t-52.5 -137zM39 230q0 104 67.5 172t168.5 68t168.5 -68t67.5 -172t-67.5 -172t-168.5 -68t-168.5 68t-67.5 172z" />
<glyph unicode="&#xf3;" horiz-adv-x="550" d="M425 695l-177 -153l-29 20l158 160zM92 230q0 -83 52.5 -137t130.5 -54t130.5 54t52.5 137t-52.5 137t-130.5 54t-130.5 -54t-52.5 -137zM39 230q0 104 67.5 172t168.5 68t168.5 -68t67.5 -172t-67.5 -172t-168.5 -68t-168.5 68t-67.5 172z" />
<glyph unicode="&#xf4;" horiz-adv-x="550" d="M275 661l-127 -111l-33 27l160 140l160 -140l-33 -27zM92 230q0 -83 52.5 -137t130.5 -54t130.5 54t52.5 137t-52.5 137t-130.5 54t-130.5 -54t-52.5 -137zM39 230q0 104 67.5 172t168.5 68t168.5 -68t67.5 -172t-67.5 -172t-168.5 -68t-168.5 68t-67.5 172z" />
<glyph unicode="&#xf5;" horiz-adv-x="550" d="M126 561q5 31 29.5 51.5t57.5 20.5q31 0 64.5 -23.5t59.5 -23.5q29 0 56 48l31 -27q-28 -65 -90 -65q-29 0 -64.5 23.5t-56.5 23.5q-27 0 -39.5 -16t-12.5 -35zM92 230q0 -83 52.5 -137t130.5 -54t130.5 54t52.5 137t-52.5 137t-130.5 54t-130.5 -54t-52.5 -137zM39 230 q0 104 67.5 172t168.5 68t168.5 -68t67.5 -172t-67.5 -172t-168.5 -68t-168.5 68t-67.5 172z" />
<glyph unicode="&#xf6;" horiz-adv-x="550" d="M138 593q0 16 11 27t26 11t26 -11t11 -27t-11 -26.5t-26 -10.5t-26 10.5t-11 26.5zM338 593q0 16 11 27t26 11t26 -11t11 -27t-11 -26.5t-26 -10.5t-26 10.5t-11 26.5zM92 230q0 -83 52.5 -137t130.5 -54t130.5 54t52.5 137t-52.5 137t-130.5 54t-130.5 -54t-52.5 -137z M39 230q0 104 67.5 172t168.5 68t168.5 -68t67.5 -172t-67.5 -172t-168.5 -68t-168.5 68t-67.5 172z" />
<glyph unicode="&#xf7;" horiz-adv-x="623" d="M60 229v52h500v-52h-500zM273 54q0 16 11 27t26 11t26 -11t11 -27t-11 -26.5t-26 -10.5t-26 10.5t-11 26.5zM273 450q0 16 11 27t26 11t26 -11t11 -27t-11 -26.5t-26 -10.5t-26 10.5t-11 26.5z" />
<glyph unicode="&#xf8;" horiz-adv-x="546" d="M447 497l31 -14l-50 -67q83 -70 83 -186q0 -104 -67.5 -172t-168.5 -68q-73 0 -134 40l-53 -71l-31 14l58 77q-76 70 -76 180q0 104 67.5 172t168.5 68q69 0 126 -35zM398 375l-227 -305q45 -31 104 -31q78 0 130.5 54t52.5 137q0 90 -60 145zM371 395q-43 26 -96 26 q-78 0 -130.5 -54t-52.5 -137t53 -138z" />
<glyph unicode="&#xf9;" horiz-adv-x="505" d="M118 699l49 27l158 -160l-30 -20zM131 168q0 -129 108 -129q58 0 96.5 41t38.5 100v280h52v-460h-52v81q-23 -42 -61.5 -66.5t-85.5 -24.5q-71 0 -109.5 44.5t-38.5 127.5v298h52v-292z" />
<glyph unicode="&#xfa;" horiz-adv-x="505" d="M386 699l-177 -153l-28 20l158 160zM131 168q0 -129 108 -129q58 0 96.5 41t38.5 100v280h52v-460h-52v81q-23 -42 -61.5 -66.5t-85.5 -24.5q-71 0 -109.5 44.5t-38.5 127.5v298h52v-292z" />
<glyph unicode="&#xfb;" horiz-adv-x="505" d="M252 657l-127 -111l-33 27l160 140l160 -140l-33 -27zM131 168q0 -129 108 -129q58 0 96.5 41t38.5 100v280h52v-460h-52v81q-23 -42 -61.5 -66.5t-85.5 -24.5q-71 0 -109.5 44.5t-38.5 127.5v298h52v-292z" />
<glyph unicode="&#xfc;" horiz-adv-x="505" d="M123 587q0 16 11 27t26 11t26.5 -11t11.5 -27q0 -15 -11.5 -26t-26.5 -11t-26 10.5t-11 26.5zM307 587q0 16 11 27t26 11t26.5 -11t11.5 -27q0 -15 -11.5 -26t-26.5 -11t-26 10.5t-11 26.5zM131 168q0 -129 108 -129q58 0 96.5 41t38.5 100v280h52v-460h-52v81 q-23 -42 -61.5 -66.5t-85.5 -24.5q-71 0 -109.5 44.5t-38.5 127.5v298h52v-292z" />
<glyph unicode="&#xfd;" horiz-adv-x="434" d="M357 695l-177 -153l-29 20l158 160zM430 460l-300 -680h-58l118 267l-186 413h62l154 -363l152 363h58z" />
<glyph unicode="&#xfe;" horiz-adv-x="558" d="M467 230q0 87 -51 139t-126 52q-66 0 -115 -55t-49 -136t49 -136t115 -55q75 0 126 52t51 139zM519 230q0 -108 -63.5 -174t-158.5 -66q-63 0 -109.5 36t-68.5 98l-41 -344l-4 600l48 400l3 -430q24 56 68.5 88t103.5 32q95 0 158.5 -66t63.5 -174z" />
<glyph unicode="&#xff;" horiz-adv-x="434" d="M88 575q0 16 11 27t26 11t26 -11t11 -27t-11 -26.5t-26 -10.5t-26 10.5t-11 26.5zM272 575q0 16 11 27t26 11t26 -11t11 -27t-11 -26.5t-26 -10.5t-26 10.5t-11 26.5zM430 460l-300 -680h-58l118 267l-186 413h62l154 -363l152 363h58z" />
<glyph unicode="&#x152;" horiz-adv-x="971" d="M898 52v-52h-508q-153 0 -251.5 97t-98.5 253t98 253t252 97h507v-52h-327v-238h307v-52h-307v-306h328zM515 648h-125q-130 0 -212.5 -83t-82.5 -215t83 -215t212 -83h125v596z" />
<glyph unicode="&#x153;" horiz-adv-x="910" d="M92 230q0 -88 49.5 -139.5t124.5 -51.5q65 0 112.5 53t47.5 138t-47.5 138t-112.5 53q-75 0 -124.5 -51.5t-49.5 -139.5zM39 230q0 109 63 174.5t157 65.5q69 0 121 -41t72 -113q23 71 78.5 112.5t131.5 41.5q85 0 147 -64t62 -164q0 -17 -1 -25h-386q4 -82 51 -130 t121 -48q107 0 165 95l42 -27q-77 -117 -207 -117q-74 0 -128 42t-76 112q-20 -72 -72 -113t-121 -41q-94 0 -157 65.5t-63 174.5zM485 262h331q-4 70 -46.5 116t-113.5 46t-118.5 -46t-52.5 -116z" />
<glyph unicode="&#x178;" horiz-adv-x="539" d="M136 807q0 15 11.5 26t26.5 11t26.5 -11t11.5 -26q0 -16 -11.5 -27t-26.5 -11t-26.5 11t-11.5 27zM328 807q0 15 11.5 26t26.5 11t26.5 -11t11.5 -26q0 -16 -11.5 -27t-26.5 -11t-26.5 11t-11.5 27zM468 700h62l-235 -411v-289h-55v288l-231 412h62l196 -362z" />
<glyph unicode="&#x2c6;" horiz-adv-x="480" d="M240 674l-127 -111l-33 27l160 140l160 -140l-33 -27z" />
<glyph unicode="&#x2dc;" horiz-adv-x="530" d="M117 635q5 31 29.5 51.5t57.5 20.5q31 0 64.5 -23.5t59.5 -23.5q29 0 56 48l31 -27q-28 -65 -90 -65q-29 0 -64.5 23.5t-56.5 23.5q-27 0 -39.5 -16t-12.5 -35z" />
<glyph unicode="&#x2000;" horiz-adv-x="483" />
<glyph unicode="&#x2001;" horiz-adv-x="967" />
<glyph unicode="&#x2002;" horiz-adv-x="483" />
<glyph unicode="&#x2003;" horiz-adv-x="967" />
<glyph unicode="&#x2004;" horiz-adv-x="322" />
<glyph unicode="&#x2005;" horiz-adv-x="241" />
<glyph unicode="&#x2006;" horiz-adv-x="161" />
<glyph unicode="&#x2007;" horiz-adv-x="161" />
<glyph unicode="&#x2008;" horiz-adv-x="120" />
<glyph unicode="&#x2009;" horiz-adv-x="193" />
<glyph unicode="&#x200a;" horiz-adv-x="53" />
<glyph unicode="&#x2010;" horiz-adv-x="210" d="M5 226v49h200v-49h-200z" />
<glyph unicode="&#x2011;" horiz-adv-x="210" d="M5 226v49h200v-49h-200z" />
<glyph unicode="&#x2012;" horiz-adv-x="210" d="M5 226v49h200v-49h-200z" />
<glyph unicode="&#x2013;" horiz-adv-x="740" d="M70 226v49h600v-49h-600z" />
<glyph unicode="&#x2014;" horiz-adv-x="890" d="M70 226v49h750v-49h-750z" />
<glyph unicode="&#x2018;" horiz-adv-x="255" d="M128 470h-62l98 230h37z" />
<glyph unicode="&#x2019;" horiz-adv-x="263" d="M135 700h62l-98 -230h-37z" />
<glyph unicode="&#x201a;" horiz-adv-x="263" d="M133 80h62l-98 -230h-37z" />
<glyph unicode="&#x201c;" horiz-adv-x="439" d="M312 470h-62l98 230h37zM136 470h-62l98 230h37z" />
<glyph unicode="&#x201d;" horiz-adv-x="439" d="M303 700h62l-98 -230h-37zM127 700h62l-98 -230h-37z" />
<glyph unicode="&#x2026;" horiz-adv-x="864" d="M685 24q0 16 11 27t26 11t26.5 -11t11.5 -27q0 -15 -11.5 -26t-26.5 -11t-26 10.5t-11 26.5zM395 24q0 16 11 27t26 11t26.5 -11t11.5 -27q0 -15 -11.5 -26t-26.5 -11t-26 10.5t-11 26.5zM105 24q0 16 11 27t26 11t26.5 -11t11.5 -27q0 -15 -11.5 -26t-26.5 -11t-26 10.5 t-11 26.5z" />
<glyph unicode="&#x202f;" horiz-adv-x="193" />
<glyph unicode="&#x2039;" horiz-adv-x="340" d="M99 258l171 -208l-33 -30l-197 235l197 235l33 -30z" />
<glyph unicode="&#x203a;" horiz-adv-x="350" d="M251 252l-171 208l33 30l197 -235l-197 -235l-33 30z" />
<glyph unicode="&#x205f;" horiz-adv-x="241" />
<glyph unicode="&#x20ac;" horiz-adv-x="628" d="M39 302v33h63v15q0 34 5 72h-68v33h74q25 116 100 185.5t181 69.5q79 0 150 -41v-66q-63 55 -150 55q-85 0 -144 -54.5t-81 -148.5h371v-33h-378q-5 -38 -5 -72v-15h357v-33h-355q12 -117 76 -188.5t159 -71.5q87 0 150 55v-66q-71 -41 -150 -41q-119 0 -198 86.5 t-92 225.5h-65z" />
<glyph unicode="&#x2122;" horiz-adv-x="665" d="M34 674v26h213v-26h-93v-324h-28v324h-92zM329 625l-29 -275h-28l40 363l140 -269l140 269l40 -363h-27l-30 274l-123 -234z" />
<glyph unicode="&#x25fc;" horiz-adv-x="460" d="M0 460h460v-460h-460v460z" />
<glyph unicode="&#xff10;" d="M40 350q0 156 67.5 258t176.5 102t176.5 -102t67.5 -258t-67.5 -258t-176.5 -102t-176.5 102t-67.5 258zM95 350q0 -133 51.5 -220.5t137.5 -87.5t137.5 87.5t51.5 220.5t-51.5 220.5t-137.5 87.5t-137.5 -87.5t-51.5 -220.5z" />
<glyph unicode="&#xff11;" d="M135 599v57l216 52v-708h-55v641z" />
<glyph unicode="&#xff12;" d="M33 0l326 345q82 87 82 166q0 58 -38 103t-110 45q-77 0 -123.5 -54.5t-46.5 -144.5h-54q0 113 61 182t163 69q69 0 117 -33t67.5 -77.5t19.5 -93.5q0 -94 -94 -192l-256 -263h364v-52h-478z" />
<glyph unicode="&#xff13;" d="M291 -10q-99 0 -159 55.5t-60 139.5h55q0 -62 45 -102.5t119 -40.5q72 0 115 40t43 105q0 72 -57 112t-131 40v49q69 0 118.5 39t49.5 99q0 57 -35 95.5t-98 38.5q-62 0 -102 -38t-40 -96h-52q0 82 53.5 133t139.5 51t138 -53.5t52 -128.5q0 -57 -38 -100.5t-100 -62.5 q71 -18 114.5 -64.5t43.5 -119.5q0 -86 -60 -138.5t-154 -52.5z" />
<glyph unicode="&#xff14;" d="M428 140v-140h-56v140h-352l386 560h22v-511h109v-49h-109zM372 189v384l-260 -384h260z" />
<glyph unicode="&#xff15;" d="M514 230q0 -115 -67.5 -177.5t-170.5 -62.5q-158 0 -232 147l46 31q26 -56 74.5 -91t111.5 -35q82 0 131.5 50.5t49.5 137.5q0 79 -48.5 128.5t-121.5 49.5q-56 0 -98.5 -18.5t-90.5 -62.5l92 373h330v-49h-288l-59 -236q59 43 135 43q88 0 147 -64t59 -164z" />
<glyph unicode="&#xff16;" d="M334 700h69l-209 -285q43 34 113 34q86 0 146.5 -65t60.5 -158q0 -105 -64 -170.5t-166 -65.5t-166 65.5t-64 170.5q0 84 49 151zM107 226q0 -81 49.5 -133.5t127.5 -52.5t127.5 52.5t49.5 133.5q0 77 -50.5 129.5t-122.5 52.5q-81 0 -131 -52.5t-50 -129.5z" />
<glyph unicode="&#xff17;" d="M56 648v52h482l-350 -700h-57l323 648h-398z" />
<glyph unicode="&#xff18;" d="M129 194q0 -69 44 -112t111 -43t111 43t44 112q0 64 -47.5 108.5t-107.5 44.5t-107.5 -44.5t-47.5 -108.5zM152 529q0 -56 41 -94.5t91 -38.5t91 38.5t41 94.5t-37.5 94t-94.5 38t-94.5 -38t-37.5 -94zM99 535q0 72 53 123.5t132 51.5t132 -51.5t53 -123.5 q0 -58 -31.5 -101.5t-82.5 -61.5q61 -20 99 -68t38 -116q0 -84 -58 -141t-150 -57t-150 57t-58 141q0 68 38 116t99 68q-51 18 -82.5 61.5t-31.5 101.5z" />
<glyph unicode="&#xff19;" d="M234 0h-69l209 285q-43 -34 -113 -34q-86 0 -146.5 65t-60.5 158q0 105 64 170.5t166 65.5t166 -65.5t64 -170.5q0 -84 -49 -151zM461 474q0 81 -49.5 133.5t-127.5 52.5t-127.5 -52.5t-49.5 -133.5q0 -77 50.5 -129.5t122.5 -52.5q81 0 131 52.5t50 129.5z" />
</font>
</defs>
</svg>
